# xmcd
# Track frame offsets:
# 183
# 11595
# 27343
# 42275
# 57345
# 71520
# 86213
# 100700
# 116155
# 130448
# 145320
# 158753
#
# Disc length: 2297 seconds
# Revision: 2
# Processed by: cddbd v1.4PL0 Copyright (c) Steve Scherf et al.
# Submitted via: VisiTrax 2.9.6.190 - For more info visit www.synapsa.com
#
DISCID=a608f70c
DTITLE=Cab Calloway And His Orchestra - Cab Calloway And His Orchestra
DYEAR=2003
DGENRE=Swing
TTITLE0=Bugle Call Rag
TTITLE1=There's A Cabin In The Cotton
TTITLE2=Kickin' The Gong Around
TTITLE3=Nobody's Sweetheart Now
TTITLE4=Harlem Camp Meeting
TTITLE5=You Rascal You
TTITLE6=Minnie The Moocher
TTITLE7=Zaz Zuh Zaz
TTITLE8=Jitter Bug
TTITLE9=The Lady With The Fan
TTITLE10=Aw You Dog
TTITLE11=Between The Devil And The Deep Blue Sea
EXTD=SMS 47
EXTT0=
EXTT1=
EXTT2=
EXTT3=
EXTT4=
EXTT5=
EXTT6=
EXTT7=
EXTT8=
EXTT9=
EXTT10=
EXTT11=
PLAYORDER=
